<?xml version="1.0" encoding="UTF-8" standalone="no"?>
<!-- Created with Inkscape (http://www.inkscape.org/) -->

<svg
   xmlns:dc="http://purl.org/dc/elements/1.1/"
   xmlns:cc="http://creativecommons.org/ns#"
   xmlns:rdf="http://www.w3.org/1999/02/22-rdf-syntax-ns#"
   xmlns:svg="http://www.w3.org/2000/svg"
   xmlns="http://www.w3.org/2000/svg"
   xmlns:sodipodi="http://sodipodi.sourceforge.net/DTD/sodipodi-0.dtd"
   xmlns:inkscape="http://www.inkscape.org/namespaces/inkscape"
   width="600"
   height="200"
   id="svg2"
   version="1.1"
   inkscape:version="0.48.2 r9819"
   sodipodi:docname="architecture.svg">
  <defs
     id="defs4">
    <marker
       inkscape:stockid="Arrow1Mend"
       orient="auto"
       refY="0.0"
       refX="0.0"
       id="Arrow1Mend"
       style="overflow:visible;">
      <path
         id="path5353"
         d="M 0.0,0.0 L 5.0,-5.0 L -12.5,0.0 L 5.0,5.0 L 0.0,0.0 z "
         style="fill-rule:evenodd;stroke:#000000;stroke-width:1.0pt;marker-start:none;"
         transform="scale(0.4) rotate(180) translate(10,0)" />
    </marker>
    <marker
       inkscape:stockid="Arrow1Mstart"
       orient="auto"
       refY="0.0"
       refX="0.0"
       id="Arrow1Mstart"
       style="overflow:visible">
      <path
         id="path5350"
         d="M 0.0,0.0 L 5.0,-5.0 L -12.5,0.0 L 5.0,5.0 L 0.0,0.0 z "
         style="fill-rule:evenodd;stroke:#000000;stroke-width:1.0pt;marker-start:none"
         transform="scale(0.4) translate(10,0)" />
    </marker>
  </defs>
  <sodipodi:namedview
     id="base"
     pagecolor="#ffffff"
     bordercolor="#666666"
     borderopacity="1.0"
     inkscape:pageopacity="0.0"
     inkscape:pageshadow="2"
     inkscape:zoom="2"
     inkscape:cx="265.5"
     inkscape:cy="100"
     inkscape:document-units="px"
     inkscape:current-layer="layer1"
     showgrid="false"
     inkscape:window-width="1920"
     inkscape:window-height="1056"
     inkscape:window-x="1920"
     inkscape:window-y="24"
     inkscape:window-maximized="1" />
  <metadata
     id="metadata7">
    <rdf:RDF>
      <cc:Work
         rdf:about="">
        <dc:format>image/svg+xml</dc:format>
        <dc:type
           rdf:resource="http://purl.org/dc/dcmitype/StillImage" />
        <dc:title></dc:title>
      </cc:Work>
    </rdf:RDF>
  </metadata>
  <g
     inkscape:label="Layer 1"
     inkscape:groupmode="layer"
     id="layer1"
     transform="translate(0,-852.36218)">
    <g
       transform="translate(28,-76.250017)"
       id="layer1-19"
       inkscape:label="Layer 1">
      <path
         style="fill:#ffffff;fill-opacity:1;stroke:none"
         d="m 35.75,14.28125 -6.5625,-6.34375 -1.53125,0 -14.09375,0 c -0.732406,0 -1.3125,0.58 -1.3125,1.3125 l 0,29.5 c 0,0.7324 0.580094,1.3125 1.3125,1.3125 l 20.875,0 c 0.732406,0 1.3125,-0.5801 1.3125,-1.3125 l 0,-22.8125 z"
         transform="translate(0,1004.3622)"
         id="path3469"
         inkscape:connector-curvature="0"
         sodipodi:nodetypes="cccsssssscc" />
      <path
         sodipodi:nodetypes="cccssssssccscsscssssssccssc"
         inkscape:connector-curvature="0"
         id="rect3004-0"
         transform="translate(0,1004.3622)"
         d="m 35.75,14.28125 -6.5625,-6.34375 -1.53125,0 -14.09375,0 c -0.732406,0 -1.3125,0.58 -1.3125,1.3125 l 0,29.5 c 0,0.7324 0.580094,1.3125 1.3125,1.3125 l 20.875,0 c 0.732406,0 1.3125,-0.5801 1.3125,-1.3125 l 0,-22.8125 z m -20.8125,-4.6875 12.71875,0 0,5.03125 c 0,0.7324 0.580094,1.3125 1.3125,1.3125 l 5.28125,0 0,21.28125 c 0,0.6563 -0.531188,1.1875 -1.1875,1.1875 l -18.125,0 c -0.656312,0 -1.125,-0.5312 -1.125,-1.1875 l 0,-26.4375 c 0,-0.6563 0.468688,-1.1875 1.125,-1.1875 z m 14.25,0.486136 4.487976,4.201364 -3.331726,0 c -0.656312,0 -1.15625,-0.5312 -1.15625,-1.1875 z"
         style="fill:#000000;fill-opacity:1;stroke:none" />
      <rect
         rx="0.92807764"
         ry="0.92807764"
         y="1038.9272"
         x="15.379573"
         height="1.8561553"
         width="14.937632"
         id="rect3825-9"
         style="fill:#58585a;fill-opacity:1;stroke:none" />
      <rect
         style="fill:#58585a;fill-opacity:1;stroke:none"
         id="rect3827-8"
         width="16.528622"
         height="1.8561553"
         x="15.379573"
         y="1035.104"
         ry="0.92807764"
         rx="0.92807764" />
      <rect
         rx="0.92807764"
         ry="0.92807764"
         y="1031.2808"
         x="15.379573"
         height="1.8561553"
         width="10.518214"
         id="rect3829"
         style="fill:#58585a;fill-opacity:1;stroke:none" />
      <rect
         rx="0.92807764"
         style="fill:#58585a;fill-opacity:1;stroke:none"
         id="rect3831"
         width="16.086679"
         height="1.8561553"
         x="15.379573"
         y="1027.4575"
         ry="0.92807764" />
      <rect
         rx="0.92807764"
         ry="0.92807764"
         y="1023.6342"
         x="15.379573"
         height="1.8561553"
         width="13.700194"
         id="rect3833"
         style="fill:#58585a;fill-opacity:1;stroke:none" />
      <rect
         rx="0.92807764"
         style="fill:#58585a;fill-opacity:1;stroke:none"
         id="rect3835"
         width="11.048544"
         height="1.8561553"
         x="15.379573"
         y="1019.811"
         ry="0.92807764" />
      <path
         sodipodi:nodetypes="sccsss"
         inkscape:connector-curvature="0"
         id="rect3837"
         d="m 16.307651,1015.9878 11.346641,0 0,1.8561 -11.346641,0 c -0.514156,0 -0.928078,-0.4139 -0.928078,-0.928 0,-0.5142 0.413922,-0.9281 0.928078,-0.9281 z"
         style="fill:#58585a;fill-opacity:1;stroke:none" />
    </g>
    <g
       transform="translate(228.43502,-76.250017)"
       id="layer1-27"
       inkscape:label="Layer 1">
      <path
         inkscape:connector-curvature="0"
         d="m 43.09225,1019.5491 c 0,-0.235 -0.09,-0.455 -0.255,-0.6175 -0.16375,-0.1663 -0.38375,-0.2575 -0.61875,-0.2575 l -5.975,0 c -0.48375,0 -0.875,0.3937 -0.875,0.875 0,0.4825 0.39125,0.8763 0.875,0.8763 l 5.1,0 0,8.0612 c 0,0.4838 0.3925,1.1862 0.875,1.1862 0.4825,0 0.87625,-0.7024 0.87625,-1.1862 l -0.002,-8.9375 z m -31.33625,-0.875 -5.9750001,0 c -0.235,0 -0.45375,0.091 -0.61875,0.2575 -0.165,0.1625 -0.255,0.3825 -0.255,0.6175 l -0.002,8.9375 c 0,0.4838 0.39375,0.8737 0.87625,0.8737 0.48375,0 0.875,-0.3899 0.875,-0.8737 l 0,-8.0612 5.1000001,0 c 0.48375,0 0.875,-0.3938 0.875,-0.8763 0,-0.4813 -0.39125,-0.875 -0.875,-0.875 z m 14.43125,17.6238 -4.37375,0 c -0.485,0 -0.87625,0.395 -0.87625,0.8762 0,0.4813 0.39125,0.8763 0.87625,0.8763 l 4.37375,0 c 0.485,0 0.875,-0.395 0.875,-0.8763 0,-0.4812 -0.39,-0.8762 -0.875,-0.8762"
         style="fill:#000000;fill-opacity:1;fill-rule:nonzero;stroke:none"
         id="path5914" />
      <path
         inkscape:connector-curvature="0"
         d="m 27.7175,1026.1441 -1.72625,0 0,-2.21 7.21125,0 c 0.15875,0 0.29125,-0.1313 0.29125,-0.29 l 0,-10.94 c 0,-0.1588 -0.1325,-0.2913 -0.29125,-0.2913 l -18.405,0 c -0.16,0 -0.29125,0.1325 -0.29125,0.2913 l 0,10.94 c 0,0.1587 0.13125,0.29 0.29125,0.29 l 7.21125,0 0,2.21 -1.72875,0 c -0.14375,0 -0.26125,0.1175 -0.26125,0.2612 l 0,0.395 c 0,0.1438 0.1175,0.2612 0.26125,0.2612 l 7.4375,0 c 0.14375,0 0.26375,-0.1174 0.26375,-0.2612 l 0,-0.395 c 0,-0.1437 -0.12,-0.2612 -0.26375,-0.2612 z m -11.21875,-4.2188 0,-7.5 15,0 0,7.5 -15,0 z m 31.135,7.7362 -18.405,0 c -0.16,0 -0.29125,0.1326 -0.29125,0.2913 l 0,10.94 c 0,0.1588 0.13125,0.2913 0.29125,0.2913 l 7.21125,0 0,2.2087 -1.72875,0 c -0.14375,0 -0.26125,0.1175 -0.26125,0.2613 l 0,0.3962 c 0,0.1438 0.1175,0.2613 0.26125,0.2613 l 7.4375,0 c 0.14375,0 0.26375,-0.1175 0.26375,-0.2613 l 0,-0.3962 c 0,-0.1438 -0.12,-0.2613 -0.26375,-0.2613 l -1.72625,0 0,-2.2087 7.21125,0 c 0.15875,0 0.29125,-0.1325 0.29125,-0.2913 l 0,-10.94 c 0,-0.1587 -0.1325,-0.2913 -0.29125,-0.2913 z m -1.70375,9.5126 -15,0 0,-7.5 15,0 0,7.5 z m -27.15875,-9.5126 -18.40500015,0 c -0.15875,0 -0.29125,0.1326 -0.29125,0.2913 l 0,10.94 c 0,0.1588 0.1325,0.2913 0.29125,0.2913 l 7.21249995,0 0,2.2087 -1.7275,0 c -0.14625,0 -0.2625,0.1175 -0.2625,0.2613 l 0,0.3962 c 0,0.1438 0.11625,0.2613 0.2625,0.2613 l 7.4362502,0 c 0.14375,0 0.2625,-0.1175 0.2625,-0.2613 l 0,-0.3962 c 0,-0.1438 -0.11875,-0.2613 -0.2625,-0.2613 l -1.7275,0 0,-2.2087 7.21125,0 c 0.15875,0 0.29125,-0.1325 0.29125,-0.2913 l 0,-10.94 c 0,-0.1587 -0.1325,-0.2913 -0.29125,-0.2913 z m -1.70375,9.5126 -15.0000002,0 0,-7.5 15.0000002,0 0,7.5"
         style="fill:#58585a;fill-opacity:1;fill-rule:nonzero;stroke:none"
         id="path5916" />
    </g>
    <g
       transform="translate(529.0875,-76.250017)"
       id="layer1-14"
       inkscape:label="Layer 1">
      <g
         transform="translate(0.24966739,-0.54418476)"
         id="g3783">
        <path
           sodipodi:type="arc"
           style="fill:#000000;fill-opacity:1;stroke:none"
           id="path3772"
           sodipodi:cx="-16.75"
           sodipodi:cy="13.5"
           sodipodi:rx="10.75"
           sodipodi:ry="5.5"
           d="M -6,13.5 C -6,16.537566 -10.812939,19 -16.75,19 -22.687061,19 -27.5,16.537566 -27.5,13.5 -27.5,10.462434 -22.687061,8 -16.75,8 -10.812939,8 -6,10.462434 -6,13.5 z"
           transform="matrix(0.95290085,0,0,0.95240869,39.711112,1007.7429)" />
        <path
           style="fill:#000000;fill-opacity:1;stroke:none"
           d="m 13.506339,1026.0374 c 0,2.893 4.586253,5.2383 10.243684,5.2383 5.65743,0 10.243684,-2.3453 10.243684,-5.2383 l 0,-1.9789 c 0.01534,-0.9371 -0.254192,-0.7286 -0.805,0.06 -2.443883,2.4621 -6.498683,3.0276 -9.438684,3.0507 -3.545191,-0.1925 -7.04378,-0.6144 -9.438684,-3.0507 -0.310809,-0.5837 -0.755455,-0.8999 -0.805,-0.06 z"
           id="path3774"
           inkscape:connector-curvature="0"
           sodipodi:nodetypes="csccccccc" />
        <path
           sodipodi:nodetypes="csccccccc"
           inkscape:connector-curvature="0"
           id="path3779-8"
           d="m 13.506339,1031.6249 c 0,2.893 4.586253,5.2382 10.243684,5.2382 5.65743,0 10.243684,-2.3452 10.243684,-5.2382 l 0,-1.9789 c 0.01534,-0.9371 -0.254192,-0.7286 -0.805,0.06 -2.443883,2.462 -6.498683,3.0276 -9.438684,3.0507 -3.545191,-0.1925 -7.04378,-0.6145 -9.438684,-3.0507 -0.310809,-0.5837 -0.755455,-0.9 -0.805,-0.06 z"
           style="fill:#58585a;fill-opacity:1;stroke:none" />
        <path
           style="fill:#000000;fill-opacity:1;stroke:none"
           d="m 13.506339,1037.2124 c 0,2.893 4.586253,5.2382 10.243684,5.2382 5.65743,0 10.243684,-2.3452 10.243684,-5.2382 l 0,-1.9789 c 0.01534,-0.9372 -0.254192,-0.7286 -0.805,0.06 -2.443883,2.462 -6.498683,3.0275 -9.438684,3.0506 -3.545191,-0.1925 -7.04378,-0.6144 -9.438684,-3.0506 -0.310809,-0.5837 -0.755455,-0.9 -0.805,-0.06 z"
           id="path3781"
           inkscape:connector-curvature="0"
           sodipodi:nodetypes="csccccccc" />
      </g>
    </g>
    <text
       xml:space="preserve"
       style="font-size:12px;font-style:normal;font-variant:normal;font-weight:normal;font-stretch:normal;text-indent:0;text-align:center;text-decoration:none;line-height:125%;letter-spacing:0px;word-spacing:0px;text-transform:none;direction:ltr;block-progression:tb;writing-mode:lr-tb;text-anchor:middle;color:#000000;fill:#000000;fill-opacity:1;fill-rule:nonzero;stroke:none;stroke-width:1px;marker:none;visibility:visible;display:inline;overflow:visible;enable-background:accumulate;font-family:DejaVu Sans;-inkscape-font-specification:DejaVu Sans"
       x="52.003418"
       y="1016.3622"
       id="text5222"
       sodipodi:linespacing="125%"><tspan
         sodipodi:role="line"
         id="tspan5224"
         x="52.003418"
         y="1016.3622">Client</tspan><tspan
         sodipodi:role="line"
         x="52.003418"
         y="1031.3622"
         id="tspan5226">(PHP-Script)</tspan></text>
    <text
       sodipodi:linespacing="125%"
       id="text5228"
       y="1016.3622"
       x="152.51144"
       style="font-size:12px;font-style:normal;font-variant:normal;font-weight:normal;font-stretch:normal;text-indent:0;text-align:center;text-decoration:none;line-height:125%;letter-spacing:0px;word-spacing:0px;text-transform:none;direction:ltr;block-progression:tb;writing-mode:lr-tb;text-anchor:middle;color:#000000;fill:#000000;fill-opacity:1;fill-rule:nonzero;stroke:none;stroke-width:1px;marker:none;visibility:visible;display:inline;overflow:visible;enable-background:accumulate;font-family:DejaVu Sans;-inkscape-font-specification:DejaVu Sans"
       xml:space="preserve"><tspan
         id="tspan5232"
         y="1016.3622"
         x="152.51144"
         sodipodi:role="line">Client-API</tspan></text>
    <g
       id="g5311"
       transform="translate(-7.0325012,10)">
      <rect
         y="897.86218"
         x="146"
         height="88.5"
         width="26.5"
         id="rect5250"
         style="color:#000000;fill:#ffffff;fill-opacity:1;fill-rule:nonzero;stroke:#2e3436;stroke-width:2;stroke-linecap:round;stroke-linejoin:round;stroke-miterlimit:4;stroke-opacity:1;stroke-dasharray:none;stroke-dashoffset:0;marker:none;visibility:visible;display:inline;overflow:visible;enable-background:accumulate" />
      <text
         transform="matrix(0,-1,1,0,0,0)"
         sodipodi:linespacing="125%"
         id="text5252"
         y="165.14551"
         x="-942.71332"
         style="font-size:14px;font-style:normal;font-variant:normal;font-weight:normal;font-stretch:normal;text-indent:0;text-align:center;text-decoration:none;line-height:125%;letter-spacing:0px;word-spacing:0px;text-transform:none;direction:ltr;block-progression:tb;writing-mode:lr-tb;text-anchor:middle;color:#000000;fill:#000000;fill-opacity:1;fill-rule:nonzero;stroke:none;stroke-width:1px;marker:none;visibility:visible;display:inline;overflow:visible;enable-background:accumulate;font-family:DejaVu Sans;-inkscape-font-specification:DejaVu Sans"
         xml:space="preserve"><tspan
           id="tspan5256"
           y="165.14551"
           x="-942.71332"
           sodipodi:role="line">Public-API</tspan></text>
    </g>
    <g
       transform="translate(328.65253,-76.250017)"
       id="layer1-60"
       inkscape:label="Layer 1">
      <path
         inkscape:connector-curvature="0"
         d="m 18.6875,1044.9666 13.75,0 c 0.68625,0 1.25,-0.5638 1.25,-1.25 l 0,-3.8813 -15,0 0,5.1313 z m 7.5,-2.9663 c 0.5175,0 0.9375,0.42 0.9375,0.9375 0,0.5175 -0.42,0.9375 -0.9375,0.9375 -0.5175,0 -0.9375,-0.42 -0.9375,-0.9375 0,-0.5175 0.42,-0.9375 0.9375,-0.9375 z m 6.25,-30.2425 -13.75,0 0,26.18 15,0 0,-24.93 c 0,-0.6875 -0.56375,-1.25 -1.25,-1.25 z m -0.625,8.0775 c 0,0.2075 -0.17,0.375 -0.37625,0.375 l -10.5,0 c -0.205,0 -0.37375,-0.1675 -0.37375,-0.375 l 0,-1.375 c 0,-0.2075 0.16875,-0.3762 0.37375,-0.3762 l 10.5,0 c 0.20625,0 0.37625,0.1687 0.37625,0.3762 l 0,1.375 z m 0,-4.225 c 0,0.2088 -0.17,0.3763 -0.37625,0.3763 l -10.5,0 c -0.205,0 -0.37375,-0.1675 -0.37375,-0.3763 l 0,-1.3737 c 0,-0.2075 0.16875,-0.3763 0.37375,-0.3763 l 10.5,0 c 0.20625,0 0.37625,0.1688 0.37625,0.3763 l 0,1.3737"
         style="fill:#000000;fill-opacity:1;fill-rule:nonzero;stroke:none"
         id="path5902" />
      <path
         inkscape:connector-curvature="0"
         d="m 16.8125,1011.7578 -1.25,0 c -0.68875,0 -1.25,0.5625 -1.25,1.25 l 0,30.7088 c 0,0.6862 0.56125,1.25 1.25,1.25 l 1.25,0 0,-33.2088"
         style="fill:#58585a;fill-opacity:1;fill-rule:nonzero;stroke:none"
         id="path5904" />
    </g>
    <g
       id="g5316"
       transform="translate(-6.3799744,10)">
      <rect
         style="color:#000000;fill:#ffffff;fill-opacity:1;fill-rule:nonzero;stroke:#2e3436;stroke-width:2;stroke-linecap:round;stroke-linejoin:round;stroke-miterlimit:4;stroke-opacity:1;stroke-dasharray:none;stroke-dashoffset:0;marker:none;visibility:visible;display:inline;overflow:visible;enable-background:accumulate"
         id="rect5305"
         width="26.5"
         height="88.5"
         x="446"
         y="897.86218" />
      <text
         xml:space="preserve"
         style="font-size:14px;font-style:normal;font-variant:normal;font-weight:normal;font-stretch:normal;text-indent:0;text-align:center;text-decoration:none;line-height:125%;letter-spacing:0px;word-spacing:0px;text-transform:none;direction:ltr;block-progression:tb;writing-mode:lr-tb;text-anchor:middle;color:#000000;fill:#000000;fill-opacity:1;fill-rule:nonzero;stroke:none;stroke-width:1px;marker:none;visibility:visible;display:inline;overflow:visible;enable-background:accumulate;font-family:DejaVu Sans;-inkscape-font-specification:DejaVu Sans"
         x="-942.71332"
         y="465.14551"
         id="text5307"
         sodipodi:linespacing="125%"
         transform="matrix(0,-1,1,0,0,0)"><tspan
           sodipodi:role="line"
           x="-942.71332"
           y="465.14551"
           id="tspan5309">Public-API</tspan></text>
    </g>
    <text
       xml:space="preserve"
       style="font-size:12px;font-style:normal;font-variant:normal;font-weight:normal;font-stretch:normal;text-indent:0;text-align:center;text-decoration:none;line-height:125%;letter-spacing:0px;word-spacing:0px;text-transform:none;direction:ltr;block-progression:tb;writing-mode:lr-tb;text-anchor:middle;color:#000000;fill:#000000;fill-opacity:1;fill-rule:nonzero;stroke:none;stroke-width:1px;marker:none;visibility:visible;display:inline;overflow:visible;enable-background:accumulate;font-family:DejaVu Sans;-inkscape-font-specification:DejaVu Sans"
       x="252.72896"
       y="1016.3622"
       id="text5321"
       sodipodi:linespacing="125%"><tspan
         sodipodi:role="line"
         x="252.72896"
         y="1016.3622"
         id="tspan5323">REST-Client</tspan><tspan
         sodipodi:role="line"
         x="252.72896"
         y="1031.3622"
         id="tspan5337">(XML or JSON)</tspan></text>
    <text
       sodipodi:linespacing="125%"
       id="text5325"
       y="1016.3622"
       x="352.94647"
       style="font-size:12px;font-style:normal;font-variant:normal;font-weight:normal;font-stretch:normal;text-indent:0;text-align:center;text-decoration:none;line-height:125%;letter-spacing:0px;word-spacing:0px;text-transform:none;direction:ltr;block-progression:tb;writing-mode:lr-tb;text-anchor:middle;color:#000000;fill:#000000;fill-opacity:1;fill-rule:nonzero;stroke:none;stroke-width:1px;marker:none;visibility:visible;display:inline;overflow:visible;enable-background:accumulate;font-family:DejaVu Sans;-inkscape-font-specification:DejaVu Sans"
       xml:space="preserve"><tspan
         id="tspan5327"
         y="1016.3622"
         x="352.94647"
         sodipodi:role="line">REST-Server</tspan><tspan
         y="1031.3622"
         x="352.94647"
         sodipodi:role="line"
         id="tspan5979">(XML or JSON)</tspan></text>
    <text
       xml:space="preserve"
       style="font-size:12px;font-style:normal;font-variant:normal;font-weight:normal;font-stretch:normal;text-indent:0;text-align:center;text-decoration:none;line-height:125%;letter-spacing:0px;word-spacing:0px;text-transform:none;direction:ltr;block-progression:tb;writing-mode:lr-tb;text-anchor:middle;color:#000000;fill:#000000;fill-opacity:1;fill-rule:nonzero;stroke:none;stroke-width:1px;marker:none;visibility:visible;display:inline;overflow:visible;enable-background:accumulate;font-family:DejaVu Sans;-inkscape-font-specification:DejaVu Sans"
       x="453.16397"
       y="1016.3622"
       id="text5329"
       sodipodi:linespacing="125%"><tspan
         sodipodi:role="line"
         x="453.16397"
         y="1016.3622"
         id="tspan5331">Backend-API</tspan></text>
    <text
       sodipodi:linespacing="125%"
       id="text5333"
       y="1016.3622"
       x="553.38147"
       style="font-size:12px;font-style:normal;font-variant:normal;font-weight:normal;font-stretch:normal;text-indent:0;text-align:center;text-decoration:none;line-height:125%;letter-spacing:0px;word-spacing:0px;text-transform:none;direction:ltr;block-progression:tb;writing-mode:lr-tb;text-anchor:middle;color:#000000;fill:#000000;fill-opacity:1;fill-rule:nonzero;stroke:none;stroke-width:1px;marker:none;visibility:visible;display:inline;overflow:visible;enable-background:accumulate;font-family:DejaVu Sans;-inkscape-font-specification:DejaVu Sans"
       xml:space="preserve"><tspan
         id="tspan5335"
         y="1016.3622"
         x="553.38147"
         sodipodi:role="line">Storage</tspan></text>
    <path
       style="fill:none;stroke:#000000;stroke-width:2;stroke-linecap:butt;stroke-linejoin:miter;stroke-miterlimit:4;stroke-opacity:1;stroke-dasharray:none;marker-start:url(#Arrow1Mstart);marker-end:url(#Arrow1Mend)"
       d="m 76,954.36218 49,0"
       id="path5339"
       inkscape:connector-curvature="0" />
    <path
       inkscape:connector-curvature="0"
       id="path5971"
       d="m 172,954.36218 49,0"
       style="fill:none;stroke:#000000;stroke-width:2;stroke-linecap:butt;stroke-linejoin:miter;stroke-miterlimit:4;stroke-opacity:1;stroke-dasharray:none;marker-start:url(#Arrow1Mstart);marker-end:url(#Arrow1Mend)" />
    <path
       style="fill:none;stroke:#000000;stroke-width:2;stroke-linecap:butt;stroke-linejoin:miter;stroke-miterlimit:4;stroke-opacity:1;stroke-dasharray:none;marker-start:url(#Arrow1Mstart);marker-end:url(#Arrow1Mend)"
       d="m 286,954.36218 49,0"
       id="path5973"
       inkscape:connector-curvature="0" />
    <path
       inkscape:connector-curvature="0"
       id="path5975"
       d="m 378,954.36218 49,0"
       style="fill:none;stroke:#000000;stroke-width:2;stroke-linecap:butt;stroke-linejoin:miter;stroke-miterlimit:4;stroke-opacity:1;stroke-dasharray:none;marker-start:url(#Arrow1Mstart);marker-end:url(#Arrow1Mend)" />
    <path
       style="fill:none;stroke:#000000;stroke-width:2;stroke-linecap:butt;stroke-linejoin:miter;stroke-miterlimit:4;stroke-opacity:1;stroke-dasharray:none;marker-start:url(#Arrow1Mstart);marker-end:url(#Arrow1Mend)"
       d="m 480,954.36218 49,0"
       id="path5977"
       inkscape:connector-curvature="0" />
    <text
       xml:space="preserve"
       style="font-size:20px;font-style:normal;font-variant:normal;font-weight:normal;font-stretch:normal;text-indent:0;text-align:start;text-decoration:none;line-height:125%;letter-spacing:0px;word-spacing:0px;text-transform:none;direction:ltr;block-progression:tb;writing-mode:lr-tb;text-anchor:start;color:#000000;fill:#000000;fill-opacity:1;fill-rule:nonzero;stroke:none;stroke-width:1px;marker:none;visibility:visible;display:inline;overflow:visible;enable-background:accumulate;font-family:DejaVu Sans;-inkscape-font-specification:DejaVu Sans"
       x="239.16504"
       y="885.36218"
       id="text5981"
       sodipodi:linespacing="125%"><tspan
         sodipodi:role="line"
         id="tspan5983"
         x="239.16504"
         y="885.36218">Architecture</tspan></text>
  </g>
</svg>
